HIERARCHY
ROOT Hips
{
	OFFSET	0.00	0.00	0.00
	CHANNELS 6 Xposition Yposition Zposition Zrotation Yrotation Xrotation
	JOINT Spine
	{
		OFFSET	 0.00	0.1	 0.00
		CHANNELS 3 Zrotation Yrotation Xrotation
		JOINT Spine1
		{
			OFFSET	 0.00	 24.5913012437421	 0.00
			CHANNELS 3 Zrotation Yrotation Xrotation
            JOINT Neck
            {
                OFFSET	 0.00	 24.8462964506057	 0.00
                CHANNELS 3 Zrotation Yrotation Xrotation
                JOINT Head
                {
                    OFFSET	 0.00	 9.27524780924562	 0.00
                    CHANNELS 3 Zrotation Yrotation Xrotation
                    End Site
                    {
                        OFFSET	 0.00	 11.4999962169752	 0.00
                    }
                }
            }
			JOINT LeftShoulder
			{
				OFFSET	 0.00	 24.8462964506057	 0.00
				CHANNELS 3 Zrotation Yrotation Xrotation
				JOINT LeftUpArm
				{
					OFFSET	 0.00	 12.4881979654096	 0.00
					CHANNELS 3 Zrotation Yrotation Xrotation
					JOINT LeftForeArm
					{
						OFFSET	 0.00	25.9758046908119	 0.00
						CHANNELS 3 Zrotation Yrotation Xrotation
						JOINT LeftHand
						{
							OFFSET	 0.00	24.5542024364365	 0.00
							CHANNELS 3 Zrotation Yrotation Xrotation
							JOINT LeftHandThumb
							{
								OFFSET	 0.00	0.00	 0.00
								CHANNELS 3 Zrotation Yrotation Xrotation
								End Site
								{
									OFFSET	 0.00	0.00	10.0000003353624
								}
							}
							JOINT L_Wrist_End
							{
								OFFSET	 0.00	9.9999967115358	 0.00
								CHANNELS 3 Zrotation Yrotation Xrotation
								End Site
								{
									OFFSET	 0.00	 0.00	 0.00
								}
							}
						}
					}
				}
			}
			JOINT RightShoulder
			{
				OFFSET	 0.00	 24.8462964506057	 0.00
				CHANNELS 3 Zrotation Yrotation Xrotation
				JOINT RightUpArm
				{
					OFFSET	 0.00	 12.4881979654096	 0.00
					CHANNELS 3 Zrotation Yrotation Xrotation
					JOINT RightForeArm
					{
						OFFSET	 0.00	25.9758046908119	 0.00
						CHANNELS 3 Zrotation Yrotation Xrotation
						JOINT RightHand
						{
							OFFSET	 0.00	24.5542024364365	 0.00
							CHANNELS 3 Zrotation Yrotation Xrotation
							JOINT RightHandThumb
							{
								OFFSET	 0.00	0.00	 0.00
								CHANNELS 3 Zrotation Yrotation Xrotation
								End Site
								{
									OFFSET	 0.00	0.00	10.0000003353624
								}
							}
							JOINT R_Wrist_End
							{
								OFFSET	 0.00	9.9999967115358	 0.00
								CHANNELS 3 Zrotation Yrotation Xrotation
								End Site
								{
									OFFSET	 0.00	 0.00	 0.00
								}
							}
						}
					}
				}
			}
		}
	}
	JOINT LeftUpLeg
	{
		OFFSET	 12.719394002717	 0.00	 0.00
		CHANNELS 3 Zrotation Yrotation Xrotation
		JOINT LeftLowLeg
		{
			OFFSET	 0.00	-43.429100912261	 0.00
			CHANNELS 3 Zrotation Yrotation Xrotation
			JOINT LeftFoot
			{
				OFFSET	 0.00	-44.8767017425826	 0.00
				CHANNELS 3 Zrotation Yrotation Xrotation
				JOINT LeftToeBase
                {
                    OFFSET	 0.00	0.00	 15.1507020887566
                    CHANNELS 3 Zrotation Yrotation Xrotation
                    End Site
                    {
                        OFFSET	 0.00	0.00	 7.5000010571191
                    }
                }
			}
		}
	}
	JOINT RightUpLeg
	{
		OFFSET	 -12.719393604653	 0.00	 0.00
		CHANNELS 3 Zrotation Yrotation Xrotation
		JOINT RightLowLeg
		{
			OFFSET	 0.00	-43.429100912261	 0.00
			CHANNELS 3 Zrotation Yrotation Xrotation
			JOINT RightFoot
			{
				OFFSET	 0.00	-44.8767017425826	 0.00
				CHANNELS 3 Zrotation Yrotation Xrotation
				JOINT RightToeBase
                {
                    OFFSET	 0.00	0.00	 15.1507020887566
                    CHANNELS 3 Zrotation Yrotation Xrotation
                    End Site 
                    {
                        OFFSET	 0.00	0.00	 7.49999965609858
                    }
                }   
			}
		}
	}
}
MOTION 
Frames:	4 
Frame Time: 0.04 
 -4.374629974365234 93.76749877929687 -9.804309844970703 -3.0298678578900597 5.870014534164536 19.78633283446115 6.189493033023913 -0.9150244378750287 -33.17697610200851 -2.7188753524889187 0.5582358087409321 9.079104114153594 11.245110471051209 -2.4525992380027106 43.44759435781626 -13.144320436041985 -7.292814662011248 -72.03324142108141 -120.0211266597946 8.210295187473566 -0.06529089549701257 -40.2182919745859 30.504687462660858 4.318724284204574 0.0 0.0 21.372900009155277 -3.268967544363893 22.706209455355978 -10.828778949048106 0.0 0.0 0.0 0.0 0.0 0.0 121.36167758777009 -2.4685493486410683 -3.200132769902106 45.039115256678926 -26.701505371099426 -0.6309355415734935 0.0 0.0 20.874000549316406 10.943332022919833 -11.340801661984564 -10.307795278821306 0.0 0.0 0.0 0.0 0.0 0.0 7.668445128550097 -27.217955152334707 -17.21830827750191 0.0 0.0 5.686180114746095 0.8506906020316531 21.177167745558403 -2.5833670916453992 0.0 0.0 -11.500100135803223 -0.2125170505262105 32.97403107540794 -15.73028766414709 0.0 0.0 4.080729961395264 0.69892694282895 -29.657660468827597 2.737547899247238 0.0 0.0 -17.528709411621097 
  -4.353400039672851 93.77369995117188 -9.847319793701171 -3.0535988559744798 5.828982076397192 19.742365571460784 6.186507835211497 -0.9472812578691233 -33.20832697433695 -2.649436103254911 0.5739825275736019 9.238967299807948 11.211359156590714 -2.5064212916535995 43.56811620445049 -13.292012498693854 -7.286163728789804 -71.8226277192884 -119.97954187944897 8.320728505022435 -0.03693135616759657 -40.22759689788397 30.36906693267788 4.373106021885753 0.0 0.0 21.33749961853027 -3.2153433233152318 22.72864124699303 -10.789383324154004 0.0 0.0 0.0 0.0 0.0 0.0 121.3434826218988 -2.4966557608414157 -3.1712133132135 44.97347218057154 -26.602588261820493 -0.6129138389562385 0.0 0.0 20.967300415039062 10.903590246720983 -11.040592539247067 -10.257342422975825 0.0 0.0 0.0 0.0 0.0 0.0 7.659858055196962 -27.20619082792072 -17.20882451340677 0.0 0.0 5.719099998474122 0.8170904879197658 21.18235022523899 -2.5908595030889083 0.0 0.0 -11.47747039794922 -0.2142356103153696 33.02429918552876 -15.752275804780663 0.0 0.0 4.140329837799072 0.7045660093572099 -29.674881833971295 2.750565329866855 0.0 0.0 -17.529069900512695 
  -4.328499984741211 93.77960205078125 -9.914929962158203 -3.0675138733174 5.7432914365625125 19.699605928971074 6.164996237585924 -0.9637429045457605 -33.16399544719177 -2.560156886706859 0.618565778888262 9.372260928443078 11.195304923648575 -2.3788751566217554 43.59559512875152 -13.26808886322442 -7.3118523591058295 -71.82335399910397 -119.96993973984532 8.325968906505858 -0.02512885093397909 -40.29588487287188 30.30263632315091 4.359273206104558 0.0 0.0 21.386899948120117 -3.1623518894232765 22.813755685225743 -10.743206874309255 0.0 0.0 0.0 0.0 0.0 0.0 121.30560980688759 -2.4965773702856584 -3.1079128090114976 44.96711275706349 -26.60306069478544 -0.6192488140065318 0.0 0.0 20.983900070190433 10.987777065838397 -10.645643236014458 -10.302201834554767 0.0 0.0 0.0 0.0 0.0 0.0 7.619329457445576 -27.144264166292064 -17.20771973280856 0.0 0.0 5.764050006866455 0.8219394595672753 21.191491717916225 -2.5810437653694454 0.0 0.0 -11.474300384521483 -0.24010736843014063 33.051082609495914 -15.789781710561119 0.0 0.0 4.198160171508789 0.7419984481122046 -29.62450210270051 2.7510293332434563 0.0 0.0 -17.53730010986328 
  -4.303229904174804 93.785498046875 -9.976730346679688 -3.080265643556423 5.712996185160408 19.680355048974654 6.14488504518146 -0.9576263420099109 -33.11301877558409 -2.5220878835352782 0.6601162211912532 9.452632773464716 11.21629308316953 -2.3983079518045893 43.5384701663786 -13.27947884556836 -7.281319304097226 -71.87251068246466 -119.94920212685336 8.338410375009344 -0.0014110464205712872 -40.385411085860554 30.284260898005876 4.311253866551669 0.0 0.0 21.489200592041016 -3.0940963836821225 22.656121035126297 -10.675455877304863 0.0 0.0 0.0 0.0 0.0 0.0 121.28658357975017 -2.5478300862862615 -3.06287061611998 45.00692303154536 -26.69021727994872 -0.62852477415274 0.0 0.0 20.987499237060547 11.105172505709087 -10.737398544260534 -10.473796451914469 0.0 0.0 0.0 0.0 0.0 0.0 7.62142329942104 -27.15495776051099 -17.236546418171873 0.0 0.0 5.783090114593506 0.8333198167433014 21.22417547533387 -2.5541486729474445 0.0 0.0 -11.496700286865234 -0.23277031099976733 32.953742982280446 -15.792171734214847 0.0 0.0 4.184790134429932 0.7076772836104701 -29.52076065991316 2.8039538549738365 0.0 0.0 -17.539958953857425 
